<svg version="1.1" xmlns="http://www.w3.org/2000/svg" viewBox="-4.750001000000001 -7.153005933248383 9.500002000000002 14.74207935183958" fill="none" stroke="black" stroke-width="0.6%" vector-effect="non-scaling-stroke">
    <path d="M 3.15 1.52628 A 3.75 2.72542 360 0 1 3.75 3.00506 A 3.75 2.72542 360 0 1 -3.75 3.00506 A 3.75 2.72542 360 0 1 -3.15 1.52628" />
    <path d="M -3.75 3.86365 A 3.75 2.72542 180 0 0 3.75 3.86365" />
    <path d="M 3.15 3.00506 A 3.15 2.28935 360 0 1 -3.15 3.00506" />
    <path d="M -2.22739 -5.48247 A 3.15 2.28935 360 0 1 3.15 -3.86365 L 3.15 3.00506" />
    <path d="M 3.15 -3.86365 A 3.15 2.28935 360 0 1 -3.15 -3.86365 L -3.15 3.00506" />
    <path d="M -3.15 -3.86365 A 3.15 2.28935 360 0 1 -2.22739 -5.48247" />
    <path d="M -3.75 3.00506 L -3.75 3.86365" />
    <path d="M 3.75 3.00506 L 3.75 3.86365" />
</svg>