<svg version="1.1" xmlns="http://www.w3.org/2000/svg" viewBox="-5.000001 -8.287656308456341 10.000002000000002 15.934897732290132" fill="none" stroke="black" stroke-width="0.6%" vector-effect="non-scaling-stroke">
    <path d="M 2.82843 -0.17033 A 4 3.01372 180 0 0 4 -2.30135 L 4 -4.27394 A 4 3.01372 360 0 1 2.82843 -2.14292 A 4 3.01372 360 0 1 -4 -4.27394 A 4 3.01372 360 0 1 4 -4.27394" />
    <path d="M -4 -2.30135 A 4 3.01372 180 0 0 2.82843 -0.17033" />
    <path d="M 2.22739 5.95212 A 3.15 2.3733 180 0 0 3.15 4.27394 L 3.15 -0.44395" />
    <path d="M -3.15 4.27394 A 3.15 2.3733 180 0 0 2.22739 5.95212" />
    <path d="M -4 -2.30135 L -4 -4.27394" />
    <path d="M -3.15 4.27394 L -3.15 -0.44395" />
</svg>