<svg version="1.1" xmlns="http://www.w3.org/2000/svg" viewBox="-4.750001 -7.589073418591195 9.500002 14.742079351839582" fill="none" stroke="black" stroke-width="0.6%" vector-effect="non-scaling-stroke">
    <path d="M 2.65165 -1.0779 A 3.75 2.72542 180 0 0 3.75 -3.00506 L 3.75 -3.86365 A 3.75 2.72542 360 0 1 2.65165 -1.93649 A 3.75 2.72542 360 0 1 -3.75 -3.86365 A 3.75 2.72542 360 0 1 3.75 -3.86365" />
    <path d="M -3.75 -3.00506 A 3.75 2.72542 180 0 0 2.65165 -1.0779" />
    <path d="M 2.22739 5.48247 A 3.15 2.28935 180 0 0 3.15 3.86365 L 3.15 -1.52628" />
    <path d="M -3.15 3.86365 A 3.15 2.28935 180 0 0 2.22739 5.48247" />
    <path d="M -3.75 -3.00506 L -3.75 -3.86365" />
    <path d="M -3.15 3.86365 L -3.15 -1.52628" />
</svg>